Coordinates
version=1
nRows=17
nColumns=40
inDegrees=yes

Units are S.I. units (second, meters, Newtons, ...)
Angles are in degrees.

endheader
time	pelvis_tilt	pelvis_list	pelvis_rotation	pelvis_tx	pelvis_ty	pelvis_tz	hip_flexion_r	hip_adduction_r	hip_rotation_r	knee_angle_r	knee_angle_r_beta	ankle_angle_r	subtalar_angle_r	mtp_angle_r	hip_flexion_l	hip_adduction_l	hip_rotation_l	knee_angle_l	knee_angle_l_beta	ankle_angle_l	subtalar_angle_l	mtp_angle_l	lumbar_extension	lumbar_bending	lumbar_rotation	arm_flex_r	arm_add_r	arm_rot_r	elbow_flex_r	pro_sup_r	wrist_flex_r	wrist_dev_r	arm_flex_l	arm_add_l	arm_rot_l	elbow_flex_l	pro_sup_l	wrist_flex_l	wrist_dev_l
     58.50000000	     -3.43404425	     -5.65469100	      3.97773313	      0.99351282	      0.93329678	      0.46234268	      5.73931541	      6.01947960	    -18.17469049	      9.17409861	      9.17409861	      9.87332965	      3.44314155	     -4.49077955	     34.49855222	    -11.32547160	      0.13208159	     52.98703155	     52.98703155	      8.01872255	    -18.62768344	     14.08016497	     -8.11098950	      6.79747994	      4.27041817	     28.02453407	    -17.28336447	     -2.35235045	     70.02648947	     44.92664583	      0.00000000	      0.00000000	     -2.44665264	     -6.06508234	      3.39860181	     25.15970217	     45.53245471	      0.00000000	      0.00000000
     58.51257143	     -3.55156345	     -5.61449267	      4.26383324	      0.99192586	      0.93301278	      0.46209867	      5.07965466	      6.09662295	    -18.49868766	      8.45745447	      8.45745447	      9.92899837	      3.90751250	     -4.87546068	     34.86692745	    -10.79005733	      0.16169417	     49.31156148	     49.31156148	      8.22795784	    -18.52677071	     14.20544050	     -8.28398469	      6.80373247	      4.42380898	     28.91121641	    -17.73216842	     -2.31015064	     74.44382417	     44.80917251	      0.00000000	      0.00000000	     -3.51291465	     -6.26946027	      4.01780970	     25.83965727	     45.39666948	      0.00000000	      0.00000000
     58.52514286	     -3.77290523	     -5.59361330	      4.55208096	      0.99020149	      0.93241329	      0.46165377	      4.67325667	      6.14006070	    -18.68599066	      8.00359870	      8.00359870	     10.13385159	      4.08732463	     -5.04695630	     35.25474347	    -10.17736199	      0.33044499	     45.50731844	     45.50731844	      8.34284143	    -18.26708333	     14.10541411	     -8.25997378	      6.84982592	      4.28255476	     30.49369062	    -17.69733357	     -2.48076460	     76.78275521	     44.75979175	      0.00000000	      0.00000000	     -4.39155837	     -6.34105955	      4.40207016	     25.79697803	     45.31595445	      0.00000000	      0.00000000
     58.53771429	     -3.96169734	     -5.51280078	      4.83568448	      0.98848639	      0.93176220	      0.46100733	      4.31476999	      6.08584558	    -18.89110439	      7.73090885	      7.73090885	     10.39923311	      4.16601342	     -5.21181032	     35.43768101	     -9.45348878	      0.58528203	     41.54613154	     41.54613154	      8.49557589	    -17.74005129	     13.98737885	     -8.28681123	      6.81524162	      4.25601262	     31.98752525	    -17.73717316	     -2.56349092	     78.80851863	     44.71204759	      0.00000000	      0.00000000	     -5.15343600	     -6.38575125	      4.60671311	     25.80806821	     45.26801354	      0.00000000	      0.00000000
     58.55028571	     -4.20342747	     -5.51435889	      5.11960823	      0.98678613	      0.93084735	      0.46025084	      4.04591157	      6.07458500	    -19.32254875	      7.52256379	      7.52256379	     10.69836285	      4.59816142	     -5.56300368	     35.56437587	     -8.82800434	      0.86969167	     37.48597496	     37.48597496	      8.03596555	    -16.94600815	     12.20627369	     -8.30567848	      6.91047627	      4.62487065	     32.80624592	    -18.40581448	     -2.66341035	     82.36786888	     44.63911787	      0.00000000	      0.00000000	     -5.88870505	     -6.53178184	      5.21700269	     26.53153563	     45.15813516	      0.00000000	      0.00000000
     58.56285714	     -4.38506288	     -5.49701032	      5.38851405	      0.98515233	      0.92999607	      0.45946256	      3.75957513	      6.06522420	    -19.42167374	      7.40929316	      7.40929316	     11.04901231	      4.49452899	     -5.68964271	     35.58876514	     -8.21051605	      1.18072021	     33.63478832	     33.63478832	      8.34414891	    -15.54130252	     12.17655451	     -8.32515121	      6.93585146	      4.51143198	     34.33227058	    -18.24106824	     -2.80898305	     83.83488157	     44.61121716	      0.00000000	      0.00000000	     -6.48036038	     -6.57553799	      5.40088200	     26.33232337	     45.12179043	      0.00000000	      0.00000000
     58.57542857	     -4.57414654	     -5.48835678	      5.67763104	      0.98362969	      0.92907009	      0.45853557	      3.49798817	      6.04105295	    -19.54951897	      7.34363654	      7.34363654	     11.41583107	      4.45318700	     -5.82335469	     35.58479403	     -7.65034266	      1.41401365	     29.98804521	     29.98804521	      8.55669743	    -13.76962948	     12.16499327	     -8.34142198	      7.00562594	      4.40918171	     35.67623610	    -18.13874904	     -2.86360846	     85.44053838	     44.57412329	      0.00000000	      0.00000000	     -7.02917010	     -6.60540660	      5.52724273	     26.23207847	     45.09493559	      0.00000000	      0.00000000
     58.58800000	     -4.72861353	     -5.52001923	      5.95065836	      0.98233274	      0.92807486	      0.45750930	      3.21913789	      6.05303093	    -19.72303605	      7.34273016	      7.34273016	     11.81215134	      4.38707072	     -5.93490300	     35.50045846	     -7.16993216	      1.53643787	     26.63892936	     26.63892936	      8.88215573	    -11.91862170	     12.11099070	     -8.33320194	      7.11293551	      4.28657102	     36.85730085	    -18.04427213	     -2.87534073	     87.17750778	     44.53164247	      0.00000000	      0.00000000	     -7.48770739	     -6.62243648	      5.64000778	     26.20163270	     45.07236305	      0.00000000	      0.00000000
     58.60057143	     -4.83711644	     -5.52948029	      6.20611129	      0.98124579	      0.92713115	      0.45645754	      2.89848466	      6.03836636	    -19.82864563	      7.39181156	      7.39181156	     12.23739789	      4.31218323	     -6.00133222	     35.37788943	     -6.74024001	      1.47876906	     23.74023794	     23.74023794	      9.07909240	    -10.07927681	     12.15819670	     -8.39715375	      7.17912953	      4.20164371	     37.81082346	    -17.92594898	     -2.85588182	     88.93279221	     44.48772636	      0.00000000	      0.00000000	     -7.88454111	     -6.66017779	      5.74607846	     26.17071552	     45.05318032	      0.00000000	      0.00000000
     58.61314286	     -4.93453729	     -5.56143733	      6.43389527	      0.98039910	      0.92615327	      0.45539331	      2.57023671	      6.04602530	    -19.91151369	      7.48171147	      7.48171147	     12.69197477	      4.18477887	     -5.98143395	     35.28172285	     -6.38958263	      1.22891075	     21.39440202	     21.39440202	      9.22822625	     -8.43013304	     12.27178415	     -8.44409621	      7.24096838	      4.16999953	     38.57471715	    -17.84106479	     -2.85630991	     90.69260675	     44.44603313	      0.00000000	      0.00000000	     -8.17224975	     -6.68354625	      5.86693142	     26.14172858	     45.03576961	      0.00000000	      0.00000000
     58.62571429	     -5.01427807	     -5.56566698	      6.64004218	      0.97982940	      0.92518458	      0.45426966	      2.21805887	      6.02454292	    -19.89794956	      7.60477927	      7.60477927	     13.17185995	      3.98844226	     -5.89646502	     35.18558704	     -6.05356563	      0.77532851	     19.62992104	     19.62992104	      9.26953202	     -7.16218437	     12.43623860	     -8.43955558	      7.26546776	      4.16779370	     39.16782638	    -17.71397917	     -2.87126067	     92.15883560	     44.41382387	      0.00000000	      0.00000000	     -8.37878414	     -6.72725518	      5.97885533	     26.08335830	     45.02167833	      0.00000000	      0.00000000
     58.63828571	     -5.07073005	     -5.52950627	      6.80233344	      0.97952308	      0.92425591	      0.45313320	      1.82374157	      5.96310643	    -19.82809816	      7.74387426	      7.74387426	     13.70070329	      3.76351697	     -5.74757337	     35.08028308	     -5.73547392	      0.14885198	     18.46394500	     18.46394500	      9.17844037	     -6.31148747	     12.56165298	     -8.46413164	      7.20575053	      4.16178276	     39.53974296	    -17.48402882	     -2.85181936	     93.47978279	     44.38462250	      0.00000000	      0.00000000	     -8.52332586	     -6.77039815	      6.09025458	     25.98324979	     45.00959870	      0.00000000	      0.00000000
     58.65085714	     -5.15093264	     -5.56773823	      6.93740475	      0.97955748	      0.92318211	      0.45194785	      1.45677833	      5.97269661	    -19.70971450	      7.93106434	      7.93106434	     14.36405278	      3.55127202	     -5.06738731	     35.07684670	     -5.53629459	     -0.57034146	     17.96667441	     17.96667441	      8.93429262	     -5.86125330	     12.33239894	     -8.36070817	      7.27050633	      4.38694328	     39.53275973	    -17.52442207	     -3.00506531	     95.29276709	     44.36387466	      0.00000000	      0.00000000	     -8.47539623	     -6.83434843	      6.34204831	     25.82830234	     44.99383332	      0.00000000	      0.00000000
     58.66342857	     -5.23540942	     -5.63912471	      7.07277018	      0.97988119	      0.92205198	      0.45066686	      1.00904239	      6.03176858	    -19.73069773	      7.95624821	      7.95624821	     14.74749184	      3.46758697	     -5.15417853	     35.07904910	     -5.35796187	     -1.07944687	     17.96688979	     17.96688979	      8.63556408	     -6.03788822	     12.44357866	     -8.10827895	      7.34435926	      4.44270201	     39.61624283	    -17.45436566	     -2.99065153	     95.39361849	     44.36145417	      0.00000000	      0.00000000	     -8.48560325	     -6.87499010	      6.34392856	     25.81217780	     44.99415111	      0.00000000	      0.00000000
     58.67600000	     -5.22334609	     -5.47577304	      7.02620198	      0.98064207	      0.92114139	      0.44944534	      0.50000343	      5.80381377	    -19.45513815	      8.25777315	      8.25777315	     15.72489258	      3.44774932	     -3.72748340	     34.64259612	     -5.09124990	     -1.84454811	     17.90847891	     17.90847891	      7.38478177	     -6.65671292	     10.66934376	     -8.11625300	      7.10644779	      4.69005345	     39.24988847	    -17.20934805	     -3.11254792	     97.10715716	     44.37529973	      0.00000000	      0.00000000	     -8.34910906	     -6.98383768	      6.72067635	     25.59765335	     44.98699331	      0.00000000	      0.00000000
     58.68857143	     -5.26922761	     -5.39580597	      6.97391642	      0.98163846	      0.92003827	      0.44819100	     -0.04784030	      5.68116692	    -19.29510090	      8.30983879	      8.30983879	     16.11301278	      3.46067238	     -3.78508621	     34.39553938	     -4.94547013	     -2.51892995	     18.44460185	     18.44460185	      6.82283198	     -7.18178357	     10.73421009	     -7.88872656	      6.96525486	      4.75461809	     39.01749206	    -16.87444479	     -2.95304193	     97.21318431	     44.36868766	      0.00000000	      0.00000000	     -8.33045456	     -7.05418729	      6.72657726	     25.58718350	     44.98875169	      0.00000000	      0.00000000
     58.70114286	     -5.31835560	     -5.37984474	      6.91019286	      0.98291941	      0.91874649	      0.44679048	     -0.55354023	      5.59651366	    -19.15778581	      8.50175312	      8.50175312	     16.75531581	      3.52288293	     -3.30069612	     34.08900836	     -4.80222534	     -2.71503617	     19.06563042	     19.06563042	      5.63803547	     -8.44338170	      9.74709997	     -7.67574163	      6.92180058	      4.65319529	     38.57363743	    -16.37374462	     -2.63533629	     97.96192162	     44.35827201	      0.00000000	      0.00000000	     -8.42025576	     -7.12370307	      6.73047882	     25.73085885	     45.00613368	      0.00000000	      0.00000000
